<svg width="124" height="32" viewBox="0 0 124 32" fill="none" xmlns="http://www.w3.org/2000/svg">
<path d="M32 16C32 24.8366 24.8366 32 16 32C7.16344 32 0 24.8366 0 16C0 7.16344 7.16344 0 16 0C24.8366 0 32 7.16344 32 16Z" fill="#363530"/>
<path d="M16.8924 12.6759C16.2561 12.249 15.4905 12 14.6667 12H14.0468C14.969 10.4059 16.6926 9.33333 18.6667 9.33333C21.6122 9.33333 24 11.7211 24 14.6667C24 17.6122 21.6122 20 18.6667 20V17.3333C20.1394 17.3333 21.3333 16.1394 21.3333 14.6667C21.3333 13.1939 20.1394 12 18.6667 12C17.9854 12 17.3637 12.2555 16.8924 12.6759Z" fill="#E1E0E0"/>
<path d="M8 12H14.6667C16.8758 12 18.6667 13.7909 18.6667 16V22.6667H16V16C16 15.2636 15.403 14.6667 14.6667 14.6667H8V12Z" fill="white"/>
<path d="M9.33333 17.3333C8.59695 17.3333 8 17.9303 8 18.6667V22.6667H13.3333V18.6667C13.3333 17.9303 12.7364 17.3333 12 17.3333H9.33333Z" fill="white"/>
<path d="M44.76 11.576H45.012V2.69995H46.86V12.5H43.248L42.1 3.62395H41.848V12.5H40V2.69995H43.612L44.76 11.576Z" fill="#363530"/>
<path d="M55.2143 9.11195C55.2143 9.69062 55.1163 10.204 54.9203 10.652C54.7243 11.0906 54.4583 11.464 54.1223 11.772C53.7863 12.0706 53.3989 12.2993 52.9603 12.458C52.5309 12.6166 52.0783 12.696 51.6023 12.696C51.1263 12.696 50.6689 12.6166 50.2303 12.458C49.8009 12.2993 49.4183 12.0706 49.0823 11.772C48.7463 11.464 48.4803 11.0906 48.2843 10.652C48.0883 10.204 47.9903 9.69062 47.9903 9.11195V8.94395C47.9903 8.37462 48.0883 7.87062 48.2843 7.43195C48.4803 6.98395 48.7463 6.60595 49.0823 6.29795C49.4183 5.98995 49.8009 5.75662 50.2303 5.59795C50.6689 5.43928 51.1263 5.35995 51.6023 5.35995C52.0783 5.35995 52.5309 5.43928 52.9603 5.59795C53.3989 5.75662 53.7863 5.98995 54.1223 6.29795C54.4583 6.60595 54.7243 6.98395 54.9203 7.43195C55.1163 7.87062 55.2143 8.37462 55.2143 8.94395V9.11195ZM51.6023 11.016C51.8543 11.016 52.0923 10.974 52.3163 10.89C52.5403 10.806 52.7363 10.6846 52.9043 10.526C53.0723 10.3673 53.2029 10.176 53.2963 9.95195C53.3989 9.71862 53.4503 9.45728 53.4503 9.16795V8.88795C53.4503 8.59862 53.3989 8.34195 53.2963 8.11795C53.2029 7.88462 53.0723 7.68862 52.9043 7.52995C52.7363 7.37129 52.5403 7.24995 52.3163 7.16595C52.0923 7.08195 51.8543 7.03995 51.6023 7.03995C51.3503 7.03995 51.1123 7.08195 50.8883 7.16595C50.6643 7.24995 50.4683 7.37129 50.3003 7.52995C50.1323 7.68862 49.9969 7.88462 49.8943 8.11795C49.8009 8.34195 49.7543 8.59862 49.7543 8.88795V9.16795C49.7543 9.45728 49.8009 9.71862 49.8943 9.95195C49.9969 10.176 50.1323 10.3673 50.3003 10.526C50.4683 10.6846 50.6643 10.806 50.8883 10.89C51.1123 10.974 51.3503 11.016 51.6023 11.016Z" fill="#363530"/>
<path d="M56.3865 5.55595H58.4445V2.69995H60.2085V5.55595H62.7145V7.23595H60.2085V10.4C60.2085 10.68 60.3345 10.82 60.5865 10.82H62.4625V12.5H59.5225C59.2052 12.5 58.9439 12.3973 58.7385 12.192C58.5425 11.9866 58.4445 11.7253 58.4445 11.408V7.23595H56.3865V5.55595Z" fill="#363530"/>
<path d="M69.2488 11.492C69.0621 11.9306 68.8008 12.2433 68.4648 12.43C68.1288 12.6073 67.7368 12.696 67.2888 12.696C66.8688 12.696 66.4721 12.6166 66.0988 12.458C65.7348 12.2993 65.4128 12.066 65.1328 11.758C64.8528 11.45 64.6288 11.0766 64.4608 10.638C64.3021 10.1993 64.2228 9.69995 64.2228 9.13995V8.91595C64.2228 8.36528 64.3021 7.87062 64.4608 7.43195C64.6195 6.99328 64.8341 6.61995 65.1048 6.31195C65.3755 6.00395 65.6881 5.77062 66.0428 5.61195C66.4068 5.44395 66.7941 5.35995 67.2048 5.35995C67.6995 5.35995 68.0961 5.44395 68.3948 5.61195C68.7028 5.77995 68.9455 6.04128 69.1228 6.39595H69.3748V5.55595H71.1388V10.4C71.1388 10.68 71.2648 10.82 71.5168 10.82H71.7828V12.5H70.5788C70.2615 12.5 70.0001 12.4066 69.7948 12.22C69.5988 12.0333 69.5008 11.7906 69.5008 11.492H69.2488ZM67.6808 11.016C68.1941 11.016 68.6048 10.848 68.9128 10.512C69.2208 10.1666 69.3748 9.69995 69.3748 9.11195V8.94395C69.3748 8.35595 69.2208 7.89395 68.9128 7.55795C68.6048 7.21262 68.1941 7.03995 67.6808 7.03995C67.1675 7.03995 66.7568 7.21262 66.4488 7.55795C66.1408 7.89395 65.9868 8.35595 65.9868 8.94395V9.11195C65.9868 9.69995 66.1408 10.1666 66.4488 10.512C66.7568 10.848 67.1675 11.016 67.6808 11.016Z" fill="#363530"/>
<path d="M74.3971 12.5H72.6331V2.69995H74.3971V6.56395H74.6491C74.8357 6.18128 75.1064 5.88728 75.4611 5.68195C75.8157 5.46728 76.2684 5.35995 76.8191 5.35995C77.2297 5.35995 77.6171 5.43928 77.9811 5.59795C78.3544 5.75662 78.6764 5.98995 78.9471 6.29795C79.2271 6.59662 79.4464 6.96529 79.6051 7.40395C79.7731 7.84262 79.8571 8.34195 79.8571 8.90195V9.15395C79.8571 9.72329 79.7777 10.2273 79.6191 10.666C79.4604 11.1046 79.2457 11.478 78.9751 11.786C78.7044 12.0846 78.3824 12.3133 78.0091 12.472C77.6451 12.6213 77.2484 12.696 76.8191 12.696C76.5017 12.696 76.2264 12.6633 75.9931 12.598C75.7597 12.5326 75.5544 12.444 75.3771 12.332C75.2091 12.22 75.0644 12.094 74.9431 11.954C74.8311 11.8046 74.7331 11.6506 74.6491 11.492H74.3971V12.5ZM76.2451 11.016C76.7957 11.016 77.2391 10.848 77.5751 10.512C77.9204 10.1666 78.0931 9.69995 78.0931 9.11195V8.94395C78.0931 8.35595 77.9204 7.89395 77.5751 7.55795C77.2391 7.21262 76.7957 7.03995 76.2451 7.03995C75.6944 7.03995 75.2464 7.21728 74.9011 7.57195C74.5651 7.91728 74.3971 8.37462 74.3971 8.94395V9.11195C74.3971 9.68129 74.5651 10.1433 74.9011 10.498C75.2464 10.8433 75.6944 11.016 76.2451 11.016Z" fill="#363530"/>
<path d="M81.0573 10.82H83.4933V4.37995H81.1413V2.69995H85.2573V10.82H87.5253V12.5H81.0573V10.82Z" fill="#363530"/>
<path d="M90.8256 9.60195C90.8349 9.80729 90.8816 9.99862 90.9656 10.176C91.0589 10.344 91.1803 10.4933 91.3296 10.624C91.4883 10.7453 91.6656 10.8433 91.8616 10.918C92.0669 10.9833 92.2816 11.016 92.5056 11.016C92.9443 11.016 93.2803 10.9413 93.5136 10.792C93.7469 10.6333 93.9149 10.4466 94.0176 10.232L95.5296 11.072C95.4456 11.2493 95.3289 11.436 95.1796 11.632C95.0303 11.8186 94.8343 11.9913 94.5916 12.15C94.3583 12.3086 94.0689 12.4393 93.7236 12.542C93.3876 12.6446 92.9909 12.696 92.5336 12.696C92.0109 12.696 91.5349 12.612 91.1056 12.444C90.6763 12.276 90.3029 12.0333 89.9856 11.716C89.6776 11.3986 89.4349 11.0113 89.2576 10.554C89.0896 10.0966 89.0056 9.57862 89.0056 8.99995V8.91595C89.0056 8.38395 89.0943 7.89862 89.2716 7.45995C89.4583 7.02128 89.7103 6.64795 90.0276 6.33995C90.3449 6.03195 90.7136 5.79395 91.1336 5.62595C91.5629 5.44862 92.0203 5.35995 92.5056 5.35995C93.1029 5.35995 93.6163 5.46728 94.0456 5.68195C94.4749 5.88728 94.8296 6.15328 95.1096 6.47995C95.3896 6.79728 95.5949 7.15195 95.7256 7.54395C95.8563 7.92662 95.9216 8.29995 95.9216 8.66395V9.60195H90.8256ZM92.4916 6.95595C92.0436 6.95595 91.6796 7.07262 91.3996 7.30595C91.1196 7.52995 90.9376 7.79129 90.8536 8.08995H94.1296C94.0736 7.76328 93.8963 7.49262 93.5976 7.27795C93.3083 7.06328 92.9396 6.95595 92.4916 6.95595Z" fill="#363530"/>
<path d="M41.204 29.3H40.112V19.556H41.204V20.648H41.372C41.6147 20.228 41.9507 19.9106 42.38 19.696C42.8093 19.472 43.276 19.36 43.78 19.36C44.2093 19.36 44.6153 19.4393 44.998 19.598C45.3807 19.7566 45.7167 19.9853 46.006 20.284C46.3047 20.5826 46.538 20.9513 46.706 21.39C46.8833 21.8286 46.972 22.328 46.972 22.888V23.168C46.972 23.7373 46.888 24.2413 46.72 24.68C46.552 25.1186 46.3187 25.4873 46.02 25.786C45.7307 26.0846 45.39 26.3133 44.998 26.472C44.606 26.6213 44.1907 26.696 43.752 26.696C43.528 26.696 43.2993 26.668 43.066 26.612C42.8327 26.5653 42.6087 26.4906 42.394 26.388C42.1887 26.276 41.9973 26.1453 41.82 25.996C41.6427 25.8373 41.4933 25.6506 41.372 25.436H41.204V29.3ZM43.528 25.66C43.864 25.66 44.172 25.604 44.452 25.492C44.732 25.3706 44.9747 25.2026 45.18 24.988C45.3947 24.7733 45.558 24.512 45.67 24.204C45.7913 23.896 45.852 23.5506 45.852 23.168V22.888C45.852 22.5146 45.7913 22.1786 45.67 21.88C45.558 21.572 45.3947 21.3106 45.18 21.096C44.9747 20.872 44.7273 20.6993 44.438 20.578C44.158 20.4566 43.8547 20.396 43.528 20.396C43.2013 20.396 42.898 20.4613 42.618 20.592C42.338 20.7133 42.0907 20.886 41.876 21.11C41.6707 21.334 41.5073 21.6046 41.386 21.922C41.2647 22.23 41.204 22.5706 41.204 22.944V23.112C41.204 23.4946 41.2647 23.8446 41.386 24.162C41.5073 24.47 41.6707 24.736 41.876 24.96C42.0907 25.184 42.338 25.3566 42.618 25.478C42.898 25.5993 43.2013 25.66 43.528 25.66Z" fill="#797874"/>
<path d="M55.0883 23.112C55.0883 23.6906 54.9903 24.204 54.7943 24.652C54.6076 25.0906 54.3556 25.464 54.0383 25.772C53.7209 26.0706 53.3476 26.2993 52.9183 26.458C52.4983 26.6166 52.0596 26.696 51.6023 26.696C51.1356 26.696 50.6923 26.6166 50.2723 26.458C49.8523 26.2993 49.4836 26.0706 49.1663 25.772C48.8489 25.464 48.5923 25.0906 48.3963 24.652C48.2096 24.204 48.1163 23.6906 48.1163 23.112V22.944C48.1163 22.3746 48.2096 21.8706 48.3963 21.432C48.5923 20.984 48.8489 20.606 49.1663 20.298C49.4929 19.99 49.8663 19.7566 50.2863 19.598C50.7063 19.4393 51.1449 19.36 51.6023 19.36C52.0596 19.36 52.4983 19.4393 52.9183 19.598C53.3383 19.7566 53.7069 19.99 54.0243 20.298C54.3509 20.606 54.6076 20.984 54.7943 21.432C54.9903 21.8706 55.0883 22.3746 55.0883 22.944V23.112ZM51.6023 25.66C51.9383 25.66 52.2463 25.604 52.5263 25.492C52.8156 25.3706 53.0676 25.198 53.2823 24.974C53.4969 24.75 53.6649 24.484 53.7863 24.176C53.9076 23.8586 53.9683 23.504 53.9683 23.112V22.944C53.9683 22.5706 53.9076 22.23 53.7863 21.922C53.6649 21.6046 53.4969 21.334 53.2823 21.11C53.0676 20.886 52.8156 20.7133 52.5263 20.592C52.2369 20.4613 51.9289 20.396 51.6023 20.396C51.2756 20.396 50.9676 20.4613 50.6783 20.592C50.3889 20.7133 50.1369 20.886 49.9223 21.11C49.7076 21.334 49.5396 21.6046 49.4183 21.922C49.2969 22.23 49.2363 22.5706 49.2363 22.944V23.112C49.2363 23.504 49.2969 23.8586 49.4183 24.176C49.5396 24.484 49.7076 24.75 49.9223 24.974C50.1369 25.198 50.3843 25.3706 50.6643 25.492C50.9536 25.604 51.2663 25.66 51.6023 25.66Z" fill="#797874"/>
<path d="M58.1505 21.348C58.1505 21.684 58.2905 21.9406 58.5705 22.118C58.8599 22.2953 59.3825 22.412 60.1385 22.468C60.9505 22.5333 61.5665 22.7293 61.9865 23.056C62.4159 23.3733 62.6305 23.84 62.6305 24.456V24.54C62.6305 24.876 62.5605 25.1793 62.4205 25.45C62.2899 25.7113 62.1032 25.9353 61.8605 26.122C61.6272 26.3086 61.3379 26.4486 60.9925 26.542C60.6565 26.6446 60.2879 26.696 59.8865 26.696C59.3452 26.696 58.8785 26.626 58.4865 26.486C58.1039 26.3366 57.7819 26.1453 57.5205 25.912C57.2685 25.6693 57.0772 25.3986 56.9465 25.1C56.8159 24.792 56.7412 24.484 56.7225 24.176L57.7585 23.924C57.8052 24.456 58.0105 24.8853 58.3745 25.212C58.7385 25.5293 59.2239 25.688 59.8305 25.688C60.3439 25.688 60.7545 25.59 61.0625 25.394C61.3799 25.1886 61.5385 24.904 61.5385 24.54C61.5385 24.148 61.3845 23.868 61.0765 23.7C60.7685 23.532 60.2692 23.4246 59.5785 23.378C58.7759 23.322 58.1599 23.1353 57.7305 22.818C57.3012 22.5006 57.0865 22.0386 57.0865 21.432V21.348C57.0865 21.0213 57.1565 20.7366 57.2965 20.494C57.4365 20.242 57.6232 20.032 57.8565 19.864C58.0992 19.696 58.3699 19.57 58.6685 19.486C58.9672 19.402 59.2799 19.36 59.6065 19.36C60.0639 19.36 60.4652 19.4253 60.8105 19.556C61.1559 19.6773 61.4452 19.8406 61.6785 20.046C61.9119 20.242 62.0892 20.4706 62.2105 20.732C62.3412 20.9933 62.4252 21.2546 62.4625 21.516L61.4265 21.768C61.3799 21.32 61.1979 20.97 60.8805 20.718C60.5725 20.466 60.1665 20.34 59.6625 20.34C59.4665 20.34 59.2752 20.3633 59.0885 20.41C58.9112 20.4473 58.7525 20.508 58.6125 20.592C58.4725 20.676 58.3605 20.7833 58.2765 20.914C58.1925 21.0353 58.1505 21.18 58.1505 21.348Z" fill="#797874"/>
<path d="M67.0368 17.484C67.0368 17.2133 67.1301 16.9846 67.3168 16.798C67.5128 16.602 67.7461 16.504 68.0168 16.504C68.2875 16.504 68.5161 16.602 68.7028 16.798C68.8988 16.9846 68.9968 17.2133 68.9968 17.484C68.9968 17.7546 68.8988 17.988 68.7028 18.184C68.5161 18.3706 68.2875 18.464 68.0168 18.464C67.7461 18.464 67.5128 18.3706 67.3168 18.184C67.1301 17.988 67.0368 17.7546 67.0368 17.484ZM65.0488 25.492H67.4848V20.564H65.3008V19.556H68.5768V25.492H70.8448V26.5H65.0488V25.492Z" fill="#797874"/>
<path d="M72.8151 19.556H74.9991V16.7H76.0911V19.556H78.7791V20.564H76.0911V25.072C76.0911 25.352 76.2171 25.492 76.4691 25.492H78.4431V26.5H76.0771C75.7597 26.5 75.4984 26.3973 75.2931 26.192C75.0971 25.9866 74.9991 25.7253 74.9991 25.408V20.564H72.8151V19.556Z" fill="#797874"/>
<path d="M83.3813 17.484C83.3813 17.2133 83.4747 16.9846 83.6613 16.798C83.8573 16.602 84.0907 16.504 84.3613 16.504C84.632 16.504 84.8607 16.602 85.0473 16.798C85.2433 16.9846 85.3413 17.2133 85.3413 17.484C85.3413 17.7546 85.2433 17.988 85.0473 18.184C84.8607 18.3706 84.632 18.464 84.3613 18.464C84.0907 18.464 83.8573 18.3706 83.6613 18.184C83.4747 17.988 83.3813 17.7546 83.3813 17.484ZM81.3933 25.492H83.8293V20.564H81.6453V19.556H84.9213V25.492H87.1893V26.5H81.3933V25.492Z" fill="#797874"/>
<path d="M95.9496 23.112C95.9496 23.6906 95.8516 24.204 95.6556 24.652C95.4689 25.0906 95.2169 25.464 94.8996 25.772C94.5823 26.0706 94.2089 26.2993 93.7796 26.458C93.3596 26.6166 92.9209 26.696 92.4636 26.696C91.9969 26.696 91.5536 26.6166 91.1336 26.458C90.7136 26.2993 90.3449 26.0706 90.0276 25.772C89.7103 25.464 89.4536 25.0906 89.2576 24.652C89.0709 24.204 88.9776 23.6906 88.9776 23.112V22.944C88.9776 22.3746 89.0709 21.8706 89.2576 21.432C89.4536 20.984 89.7103 20.606 90.0276 20.298C90.3543 19.99 90.7276 19.7566 91.1476 19.598C91.5676 19.4393 92.0063 19.36 92.4636 19.36C92.9209 19.36 93.3596 19.4393 93.7796 19.598C94.1996 19.7566 94.5683 19.99 94.8856 20.298C95.2123 20.606 95.4689 20.984 95.6556 21.432C95.8516 21.8706 95.9496 22.3746 95.9496 22.944V23.112ZM92.4636 25.66C92.7996 25.66 93.1076 25.604 93.3876 25.492C93.6769 25.3706 93.9289 25.198 94.1436 24.974C94.3583 24.75 94.5263 24.484 94.6476 24.176C94.7689 23.8586 94.8296 23.504 94.8296 23.112V22.944C94.8296 22.5706 94.7689 22.23 94.6476 21.922C94.5263 21.6046 94.3583 21.334 94.1436 21.11C93.9289 20.886 93.6769 20.7133 93.3876 20.592C93.0983 20.4613 92.7903 20.396 92.4636 20.396C92.1369 20.396 91.8289 20.4613 91.5396 20.592C91.2503 20.7133 90.9983 20.886 90.7836 21.11C90.5689 21.334 90.4009 21.6046 90.2796 21.922C90.1583 22.23 90.0976 22.5706 90.0976 22.944V23.112C90.0976 23.504 90.1583 23.8586 90.2796 24.176C90.4009 24.484 90.5689 24.75 90.7836 24.974C90.9983 25.198 91.2456 25.3706 91.5256 25.492C91.8149 25.604 92.1276 25.66 92.4636 25.66Z" fill="#797874"/>
<path d="M98.6619 26.5H97.5699V19.556H98.6619V20.732H98.8299C99.2592 19.8173 100.006 19.36 101.07 19.36C101.873 19.36 102.512 19.612 102.988 20.116C103.464 20.6106 103.702 21.3573 103.702 22.356V26.5H102.61V22.58C102.61 21.852 102.447 21.306 102.12 20.942C101.793 20.578 101.35 20.396 100.79 20.396C100.127 20.396 99.6045 20.6246 99.2219 21.082C98.8485 21.53 98.6619 22.132 98.6619 22.888V26.5Z" fill="#797874"/>
<path d="M107.184 21.348C107.184 21.684 107.324 21.9406 107.604 22.118C107.893 22.2953 108.416 22.412 109.172 22.468C109.984 22.5333 110.6 22.7293 111.02 23.056C111.449 23.3733 111.664 23.84 111.664 24.456V24.54C111.664 24.876 111.594 25.1793 111.454 25.45C111.323 25.7113 111.137 25.9353 110.894 26.122C110.661 26.3086 110.371 26.4486 110.026 26.542C109.69 26.6446 109.321 26.696 108.92 26.696C108.379 26.696 107.912 26.626 107.52 26.486C107.137 26.3366 106.815 26.1453 106.554 25.912C106.302 25.6693 106.111 25.3986 105.98 25.1C105.849 24.792 105.775 24.484 105.756 24.176L106.792 23.924C106.839 24.456 107.044 24.8853 107.408 25.212C107.772 25.5293 108.257 25.688 108.864 25.688C109.377 25.688 109.788 25.59 110.096 25.394C110.413 25.1886 110.572 24.904 110.572 24.54C110.572 24.148 110.418 23.868 110.11 23.7C109.802 23.532 109.303 23.4246 108.612 23.378C107.809 23.322 107.193 23.1353 106.764 22.818C106.335 22.5006 106.12 22.0386 106.12 21.432V21.348C106.12 21.0213 106.19 20.7366 106.33 20.494C106.47 20.242 106.657 20.032 106.89 19.864C107.133 19.696 107.403 19.57 107.702 19.486C108.001 19.402 108.313 19.36 108.64 19.36C109.097 19.36 109.499 19.4253 109.844 19.556C110.189 19.6773 110.479 19.8406 110.712 20.046C110.945 20.242 111.123 20.4706 111.244 20.732C111.375 20.9933 111.459 21.2546 111.496 21.516L110.46 21.768C110.413 21.32 110.231 20.97 109.914 20.718C109.606 20.466 109.2 20.34 108.696 20.34C108.5 20.34 108.309 20.3633 108.122 20.41C107.945 20.4473 107.786 20.508 107.646 20.592C107.506 20.676 107.394 20.7833 107.31 20.914C107.226 21.0353 107.184 21.18 107.184 21.348Z" fill="#797874"/>
<path d="M113.718 27.172H120.242V28.18H113.718V27.172Z" fill="#797874"/>
</svg>
